<svg xmlns="http://www.w3.org/2000/svg" viewBox="0 0 120 120" fill="none" aria-hidden="true" preserveAspectRatio="xMidYMid meet"><defs><radialGradient id="old_token_coin-metal" cx=".35" cy=".3" r=".8"><stop stop-color="#C2B7D9" /><stop offset=".48" stop-color="#71677E" /><stop offset="1" stop-color="#24232F" /></radialGradient><linearGradient id="old_token_coin-skull" x1="0" y1="0" x2="1" y2="1"><stop stop-color="#DBD1E8" /><stop offset=".6" stop-color="#9A8CAE" /><stop offset="1" stop-color="#4D435C" /></linearGradient></defs><circle cx="60" cy="60" r="56" fill="url(#old_token_coin-metal)" stroke="#B7ADC8" stroke-width="2" /><circle cx="60" cy="60" r="46" stroke="#262332" stroke-width="2" /><path d="M35 72q-11-6-6-24 2-25 31-27 28 1 31 27 5 18-6 25l-9 9v16H45V83z" fill="url(#old_token_coin-skull)" stroke="#332A40" stroke-width="2" /><ellipse cx="45" cy="58" rx="11" ry="10" fill="#1C1827" stroke="#D0BEDF" stroke-width="1.5" /><ellipse cx="75" cy="58" rx="11" ry="10" fill="#1C1827" stroke="#D0BEDF" stroke-width="1.5" /><path d="M60 65l-7 14h14z" fill="#231B2E" /><path d="M43 85h34M44 92h32M52 83v16M61 83v16M69 83v16" stroke="#362B43" stroke-width="2" /><path d="M112.00 60.00l-7.00 -0.00" stroke="#D8CBE7" stroke-width="2" /><path d="M105.03 86.00l-6.06 -3.50" stroke="#D8CBE7" stroke-width="2" /><path d="M86.00 105.03l-3.50 -6.06" stroke="#D8CBE7" stroke-width="2" /><path d="M60.00 112.00l-0.00 -7.00" stroke="#D8CBE7" stroke-width="2" /><path d="M34.00 105.03l3.50 -6.06" stroke="#D8CBE7" stroke-width="2" /><path d="M14.97 86.00l6.06 -3.50" stroke="#D8CBE7" stroke-width="2" /><path d="M8.00 60.00l7.00 -0.00" stroke="#D8CBE7" stroke-width="2" /><path d="M14.97 34.00l6.06 3.50" stroke="#D8CBE7" stroke-width="2" /><path d="M34.00 14.97l3.50 6.06" stroke="#D8CBE7" stroke-width="2" /><path d="M60.00 8.00l0.00 7.00" stroke="#D8CBE7" stroke-width="2" /><path d="M86.00 14.97l-3.50 6.06" stroke="#D8CBE7" stroke-width="2" /><path d="M105.03 34.00l-6.06 3.50" stroke="#D8CBE7" stroke-width="2" /></svg>