<svg xmlns="http://www.w3.org/2000/svg" viewBox="0 0 120 120" fill="none" aria-hidden="true" preserveAspectRatio="xMidYMid meet"><defs><radialGradient id="bonk_coin-gold" cx=".33" cy=".28" r=".8"><stop stop-color="#FFF574" /><stop offset=".5" stop-color="#FFCB00" /><stop offset="1" stop-color="#EA8200" /></radialGradient><linearGradient id="bonk_coin-fur" x1="0" y1="0" x2="0" y2="1"><stop stop-color="#E69A39" /><stop offset="1" stop-color="#B76422" /></linearGradient></defs><circle cx="60" cy="60" r="55" fill="url(#bonk_coin-gold)" stroke="#FDB800" stroke-width="2" /><path d="M31 56l-2-28q2-8 8-3l14 18M63 44l17-20q7-5 8 3l-2 33" fill="#C06B2B" stroke="#783F16" stroke-width="2" /><path d="M36 51q28-20 49 6l7 22q-8 28-38 24-28-4-32-24z" fill="url(#bonk_coin-fur)" stroke="#925221" /><path d="M39 70q13-12 22 4 9-12 24-4l3 15q-7 18-28 17-19-2-26-18z" fill="#FFF3D6" /><ellipse cx="47" cy="62" rx="5" ry="3.5" fill="#15191C" /><ellipse cx="75" cy="63" rx="5" ry="3.5" fill="#15191C" /><path d="M54 76q7-7 14 0-6 9-14 0z" fill="#15191C" /><path d="M45 86q15 15 33-1" stroke="#31271A" stroke-width="3" stroke-linecap="round" /><path d="M40 58l10-4M70 56l9 3" stroke="#FFF7CE" stroke-width="2" /><path d="M84 21l6-15M91 28l13-9M94 37l18-2M77 18l1-14" stroke="#F1331D" stroke-width="5" stroke-linecap="round" /></svg>