<svg xmlns="http://www.w3.org/2000/svg" viewBox="0 0 976 305" fill="none" aria-hidden="true" preserveAspectRatio="none"><defs><linearGradient id="success_title_shell-metal" x1="0" y1="0" x2="1" y2="1"><stop stop-color="#CAB0BA" /><stop offset=".16" stop-color="#211923" /><stop offset=".34" stop-color="#79535D" /><stop offset=".52" stop-color="#090912" /><stop offset=".75" stop-color="#A48393" /><stop offset="1" stop-color="#271C2C" /></linearGradient><radialGradient id="success_title_shell-face" cx=".5" cy=".05" r=".8"><stop stop-color="#0D1820" /><stop offset=".7" stop-color="#03070C" /></radialGradient></defs><polygon points="0.00,107.00 49.00,58.00 215.00,58.00 273.00,0.00 342.00,0.00 390.00,49.00 586.00,49.00 634.00,0.00 703.00,0.00 761.00,58.00 927.00,58.00 976.00,107.00 976.00,244.00 917.00,305.00 800.00,305.00 761.00,266.00 215.00,266.00 176.00,305.00 59.00,305.00 0.00,244.00" fill="url(#success_title_shell-metal)" stroke="#877080" stroke-width="1.5" /><polygon points="5.00,108.49 53.50,61.10 217.80,61.10 275.20,5.00 343.50,5.00 391.00,52.39 585.00,52.39 632.50,5.00 700.80,5.00 758.20,61.10 922.50,61.10 971.00,108.49 971.00,241.00 912.60,300.00 796.80,300.00 758.20,262.28 217.80,262.28 179.20,300.00 63.40,300.00 5.00,241.00" fill="#08090F" stroke="#17121E" stroke-width="4" /><polygon points="11.00,110.28 58.90,64.82 221.15,64.82 277.85,11.00 345.29,11.00 392.21,56.47 583.79,56.47 630.71,11.00 698.15,11.00 754.85,64.82 917.10,64.82 965.00,110.28 965.00,237.40 907.33,294.00 792.97,294.00 754.85,257.81 221.15,257.81 183.03,294.00 68.67,294.00 11.00,237.40" fill="#101018" stroke="#B72CFF" stroke-width="2.5" /><polygon points="18.00,112.37 65.19,69.15 225.07,69.15 280.93,18.00 347.39,18.00 393.61,61.22 582.39,61.22 628.61,18.00 695.07,18.00 750.93,69.15 910.81,69.15 958.00,112.37 958.00,233.20 901.18,287.00 788.49,287.00 750.93,252.60 225.07,252.60 187.51,287.00 74.82,287.00 18.00,233.20" fill="#05070C" stroke="#3C244C" stroke-width="2" /><polygon points="28.00,115.35 74.19,75.35 230.66,75.35 285.34,28.00 350.38,28.00 395.62,68.00 580.38,68.00 625.62,28.00 690.66,28.00 745.34,75.35 901.81,75.35 948.00,115.35 948.00,227.20 892.39,277.00 782.10,277.00 745.34,245.16 230.66,245.16 193.90,277.00 83.61,277.00 28.00,227.20" fill="url(#success_title_shell-face)" stroke="#B72CFF" stroke-width="1" /><g transform=""><path d="M127 102H72l-22 22v108l24 26h44" stroke="#781EA9" stroke-width="12" opacity=".5" /><path d="M127 102H72l-22 22v108l24 26h44" stroke="#D64CFF" stroke-width="5" /><path d="M122 100H72l-24 24v108l25 28h44" stroke="#F1C8FF" stroke-width="1.8" /><path d="M267 25h54M276 13h40" stroke="#C747FF" stroke-width="6" /><circle cx="171" cy="172" r="10" fill="#040715" stroke="#7C557C" stroke-width="2" /><circle cx="171" cy="172" r="4" fill="#1774C3" stroke="#8BD9FF" /><path d="M9 53.2h17v40H9z" fill="#1B0C27" stroke="#80577D" /><path d="M17 60.2v26" stroke="#C94AFF" stroke-width="4" /><path d="M19 61.2v24" stroke="#F6DFFF" stroke-width="1" /><path d="M9 193.5h17v40H9z" fill="#1B0C27" stroke="#80577D" /><path d="M17 200.5v26" stroke="#C94AFF" stroke-width="4" /><path d="M19 201.5v24" stroke="#F6DFFF" stroke-width="1" /><circle cx="36" cy="289" r="2" fill="#0A0B10" stroke="#A38591" stroke-width=".7" /><circle cx="49" cy="289" r="2" fill="#0A0B10" stroke="#A38591" stroke-width=".7" /><circle cx="62" cy="289" r="2" fill="#0A0B10" stroke="#A38591" stroke-width=".7" /><circle cx="75" cy="289" r="2" fill="#0A0B10" stroke="#A38591" stroke-width=".7" /><circle cx="88" cy="289" r="2" fill="#0A0B10" stroke="#A38591" stroke-width=".7" /><circle cx="101" cy="289" r="2" fill="#0A0B10" stroke="#A38591" stroke-width=".7" /><circle cx="114" cy="289" r="2" fill="#0A0B10" stroke="#A38591" stroke-width=".7" /><circle cx="127" cy="289" r="2" fill="#0A0B10" stroke="#A38591" stroke-width=".7" /><circle cx="140" cy="289" r="2" fill="#0A0B10" stroke="#A38591" stroke-width=".7" /><path d="M64 258h35M68 263h29M50 93h19" stroke="#252A45" stroke-width="1" /></g><g transform="translate(976 0) scale(-1 1)"><path d="M127 102H72l-22 22v108l24 26h44" stroke="#781EA9" stroke-width="12" opacity=".5" /><path d="M127 102H72l-22 22v108l24 26h44" stroke="#D64CFF" stroke-width="5" /><path d="M122 100H72l-24 24v108l25 28h44" stroke="#F1C8FF" stroke-width="1.8" /><path d="M267 25h54M276 13h40" stroke="#C747FF" stroke-width="6" /><circle cx="171" cy="172" r="10" fill="#040715" stroke="#7C557C" stroke-width="2" /><circle cx="171" cy="172" r="4" fill="#1774C3" stroke="#8BD9FF" /><path d="M9 53.2h17v40H9z" fill="#1B0C27" stroke="#80577D" /><path d="M17 60.2v26" stroke="#C94AFF" stroke-width="4" /><path d="M19 61.2v24" stroke="#F6DFFF" stroke-width="1" /><path d="M9 193.5h17v40H9z" fill="#1B0C27" stroke="#80577D" /><path d="M17 200.5v26" stroke="#C94AFF" stroke-width="4" /><path d="M19 201.5v24" stroke="#F6DFFF" stroke-width="1" /><circle cx="36" cy="289" r="2" fill="#0A0B10" stroke="#A38591" stroke-width=".7" /><circle cx="49" cy="289" r="2" fill="#0A0B10" stroke="#A38591" stroke-width=".7" /><circle cx="62" cy="289" r="2" fill="#0A0B10" stroke="#A38591" stroke-width=".7" /><circle cx="75" cy="289" r="2" fill="#0A0B10" stroke="#A38591" stroke-width=".7" /><circle cx="88" cy="289" r="2" fill="#0A0B10" stroke="#A38591" stroke-width=".7" /><circle cx="101" cy="289" r="2" fill="#0A0B10" stroke="#A38591" stroke-width=".7" /><circle cx="114" cy="289" r="2" fill="#0A0B10" stroke="#A38591" stroke-width=".7" /><circle cx="127" cy="289" r="2" fill="#0A0B10" stroke="#A38591" stroke-width=".7" /><circle cx="140" cy="289" r="2" fill="#0A0B10" stroke="#A38591" stroke-width=".7" /><path d="M64 258h35M68 263h29M50 93h19" stroke="#252A45" stroke-width="1" /></g></svg>